Coordinates
version=1
nRows=8
nColumns=40
inDegrees=yes

Units are S.I. units (second, meters, Newtons, ...)
If the header above contains a line with 'inDegrees', this indicates whether rotational values are in degrees (yes) or radians (no).

endheader
time	pelvis_tilt	pelvis_list	pelvis_rotation	pelvis_tx	pelvis_ty	pelvis_tz	hip_flexion_r	hip_adduction_r	hip_rotation_r	knee_angle_r	knee_angle_r_beta	ankle_angle_r	subtalar_angle_r	mtp_angle_r	hip_flexion_l	hip_adduction_l	hip_rotation_l	knee_angle_l	knee_angle_l_beta	ankle_angle_l	subtalar_angle_l	mtp_angle_l	lumbar_extension	lumbar_bending	lumbar_rotation	arm_flex_r	arm_add_r	arm_rot_r	elbow_flex_r	pro_sup_r	wrist_flex_r	wrist_dev_r	arm_flex_l	arm_add_l	arm_rot_l	elbow_flex_l	pro_sup_l	wrist_flex_l	wrist_dev_l
      0.60000000	     -0.81417957	     -2.97663571	     -6.06658114	      0.20693228	      0.89968199	      0.23360568	    -19.97522833	     -0.87711928	     -9.85864120	     11.59943001	      0.20244824	      4.20312363	      6.68132709	      0.00000000	     26.39930259	    -10.08701979	    -28.01194779	      8.79080933	      0.15342857	     -2.47770020	     12.85594724	      0.00000000	      0.00000000	      0.00000000	      0.00000000	     44.04341471	    -16.08040694	     44.04341471	     75.14806380	     44.98272835	      0.00000000	      0.00000000	     44.04341471	    -16.08040694	     44.04341471	     75.14806380	     44.98272835	      0.00000000	      0.00000000
      0.60500000	     -0.48872091	     -2.49053465	     -6.25218515	      0.21459566	      0.89989653	      0.23326810	    -20.41153729	     -1.63986563	     -9.67883629	     12.13350455	      0.21176960	      3.38882232	      6.32699311	      0.00000000	     26.01326431	     -9.73669071	    -28.16302485	      9.58662856	      0.16731823	     -3.03042191	     11.86729584	      0.00000000	      0.00000000	      0.00000000	      0.00000000	     44.04378029	    -16.07972451	     44.04378029	     75.14788083	     44.98278762	      0.00000000	      0.00000000	     44.04378029	    -16.07972451	     44.04378029	     75.14788083	     44.98278762	      0.00000000	      0.00000000
      0.61000000	     -0.10106723	     -1.92440098	     -6.47274085	      0.22225819	      0.90028282	      0.23305312	    -20.85024657	     -2.49624790	     -9.45893537	     12.75364633	      0.22259312	      2.52489673	      5.81380710	      0.00000000	     25.54386147	     -9.31335350	    -28.34229729	     10.39950211	      0.18150555	     -3.58565192	     10.73767228	      0.00000000	      0.00000000	      0.00000000	      0.00000000	     44.04423722	    -16.07887177	     44.04423722	     75.14765235	     44.98286146	      0.00000000	      0.00000000	     44.04423722	    -16.07887177	     44.04423722	     75.14765235	     44.98286146	      0.00000000	      0.00000000
      0.61500000	      0.40578270	     -1.11813692	     -6.92782654	      0.22987529	      0.90101100	      0.23332892	    -21.28578661	     -3.67856306	     -9.02064369	     13.52623496	      0.23607734	      1.74565065	      5.05817420	      0.00000000	     24.70807076	     -8.60352896	    -28.50110279	     10.74941909	      0.18761276	     -4.42465819	      9.34861890	      0.00000000	      0.00000000	      0.00000000	      0.00000000	     44.04605403	    -16.07548335	     44.04605403	     75.14674599	     44.98315246	      0.00000000	      0.00000000	     44.04605403	    -16.07548335	     44.04605403	     75.14674599	     44.98315246	      0.00000000	      0.00000000
      0.62000000	      0.76058464	     -0.68800881	     -6.98085594	      0.23759201	      0.90151731	      0.23283790	    -21.67072054	     -4.33729491	     -8.99498789	     14.14750266	      0.24692050	      0.57001784	      4.63960850	      0.00000000	     24.37000435	     -8.29030644	    -28.48419614	     11.74787199	      0.20503905	     -4.91705182	      8.43250029	      0.00000000	      0.00000000	      0.00000000	      0.00000000	     44.04644798	    -16.07474930	     44.04644798	     75.14655006	     44.98321491	      0.00000000	      0.00000000	     44.04644798	    -16.07474930	     44.04644798	     75.14655006	     44.98321491	      0.00000000	      0.00000000
      0.62500000	      1.11139881	     -0.22079234	     -7.03715020	      0.24528678	      0.90207167	      0.23226509	    -21.96165056	     -5.03234180	     -8.91729551	     14.91715845	      0.26035353	     -0.66140751	      3.93343515	      0.00000000	     24.04562444	     -7.93020766	    -28.43444782	     12.77554124	      0.22297526	     -5.37933761	      7.40412237	      0.00000000	      0.00000000	      0.00000000	      0.00000000	     44.04692013	    -16.07386976	     44.04692013	     75.14631544	     44.98328951	      0.00000000	      0.00000000	     44.04692013	    -16.07386976	     44.04692013	     75.14631544	     44.98328951	      0.00000000	      0.00000000
      0.63000000	      1.28917765	      0.15232308	     -7.13844941	      0.25280365	      0.90253568	      0.23179472	    -21.95823646	     -5.59954354	     -8.63464761	     15.85141080	      0.27665931	     -1.91242844	      2.82826360	      0.00000000	     23.84923295	     -7.63906325	    -28.09360634	     13.64168750	      0.23809236	     -5.91586565	      6.11131818	      0.00000000	      0.00000000	      0.00000000	      0.00000000	     44.04862941	    -16.07068783	     44.04862941	     75.14546816	     44.98355711	      0.00000000	      0.00000000	     44.04862941	    -16.07068783	     44.04862941	     75.14546816	     44.98355711	      0.00000000	      0.00000000
      0.63500000	      1.62570017	      0.51117665	     -7.08773789	      0.26052134	      0.90324807	      0.23102497	    -22.17291748	     -6.14355447	     -8.67628215	     16.69807818	      0.29143644	     -3.40521922	      2.09693687	      0.00000000	     23.54783003	     -7.34461815	    -27.88446478	     14.68701159	      0.25633671	     -6.24456866	      5.25912092	      0.00000000	      0.00000000	      0.00000000	      0.00000000	     44.04915277	    -16.06971438	     44.04915277	     75.14520945	     44.98363828	      0.00000000	      0.00000000	     44.04915277	    -16.06971438	     44.04915277	     75.14520945	     44.98363828	      0.00000000	      0.00000000
